<svg width="96" height="96" viewBox="0 0 96 96" fill="none" xmlns="http://www.w3.org/2000/svg">
<path d="M56.334 21.0872V16.6097L62.839 12.1938C62.839 12.1938 62.839 10.2433 62.839 8.91846" stroke="black" stroke-width="1.28572" stroke-linecap="round" stroke-linejoin="round"/>
<path d="M39.6658 21.0874V16.6097L33.1611 12.1938C33.1611 12.1938 33.1611 10.2433 33.1611 8.91846" stroke="black" stroke-width="1.28572" stroke-linecap="round" stroke-linejoin="round"/>
<path d="M48 21.0875C48 21.0875 48 14.1574 48 11.8958" stroke="black" stroke-width="1.28572" stroke-linecap="round" stroke-linejoin="round"/>
<path d="M39.6658 74.9126V79.39L33.1611 83.806C33.1611 83.806 33.1611 85.7566 33.1611 87.0813" stroke="black" stroke-width="1.28572" stroke-linecap="round" stroke-linejoin="round"/>
<path d="M56.334 74.9124V79.3899L62.839 83.8059C62.839 83.8059 62.839 85.7565 62.8388 87.0813" stroke="black" stroke-width="1.28572" stroke-linecap="round" stroke-linejoin="round"/>
<path d="M48 74.9124C48 74.9124 48 81.8425 48 84.1041" stroke="black" stroke-width="1.28572" stroke-linecap="round" stroke-linejoin="round"/>
<path d="M74.9131 56.3335H79.3904L83.8064 62.8385C83.8064 62.8385 85.757 62.8385 87.0818 62.8385" stroke="black" stroke-width="1.28572" stroke-linecap="round" stroke-linejoin="round"/>
<path d="M74.9131 39.6661H79.3907L83.8067 33.1614C83.8067 33.1614 85.7573 33.1614 87.0821 33.1614" stroke="black" stroke-width="1.28572" stroke-linecap="round" stroke-linejoin="round"/>
<path d="M74.9131 48C74.9131 48 81.8432 48 84.1048 48" stroke="black" stroke-width="1.28572" stroke-linecap="round" stroke-linejoin="round"/>
<path d="M21.0874 39.6661H16.6097L12.1938 33.1614C12.1938 33.1614 10.2433 33.1614 8.91846 33.1614" stroke="black" stroke-width="1.28572" stroke-linecap="round" stroke-linejoin="round"/>
<path d="M21.0874 56.3335H16.6097L12.1938 62.8385C12.1938 62.8385 10.2433 62.8385 8.91846 62.8385" stroke="black" stroke-width="1.28572" stroke-linecap="round" stroke-linejoin="round"/>
<path d="M21.0872 48.0002C21.0872 48.0002 14.1571 48.0002 11.8955 48.0002" stroke="black" stroke-width="1.28572" stroke-linecap="round" stroke-linejoin="round"/>
<path d="M70.1747 33.0226V62.9774C70.1747 66.9521 66.9526 70.1741 62.9778 70.1741H33.023C29.0483 70.1741 25.8262 66.9521 25.8262 62.9774V33.0226C25.8262 29.048 29.0483 25.8259 33.023 25.8259H62.9777C66.9525 25.8258 70.1747 29.048 70.1747 33.0226Z" stroke="black" stroke-width="1.28572" stroke-linecap="round" stroke-linejoin="round"/>
<path d="M62.8381 9.56381C60.1979 9.56381 58.0562 7.42342 58.0562 4.7819C58.0562 2.14039 60.1981 0 62.8381 0C65.4796 0 67.6213 2.14039 67.6213 4.7819C67.6213 7.42342 65.4796 9.56381 62.8381 9.56381Z" fill="#30B795"/>
<path d="M33.1618 9.56381C35.802 9.56381 37.9439 7.42355 37.9439 4.78204C37.9439 2.14053 35.802 0 33.1618 0C30.5203 0 28.3784 2.14039 28.3784 4.7819C28.3784 7.42342 30.5203 9.56381 33.1618 9.56381Z" fill="#30B795"/>
<path d="M47.9997 12.5033C45.3595 12.5033 43.2178 10.3629 43.2178 7.72136C43.2178 5.07984 45.3597 2.93945 47.9997 2.93945C50.6412 2.93945 52.783 5.07984 52.783 7.72136C52.783 10.3629 50.6412 12.5033 47.9997 12.5033Z" fill="#30B795"/>
<path d="M33.1623 86.436C35.8025 86.436 37.9442 88.5764 37.9442 91.2179C37.9442 93.8595 35.8023 95.9998 33.1623 95.9998C30.5208 95.9998 28.3789 93.8595 28.3789 91.2179C28.3788 88.5764 30.5208 86.436 33.1623 86.436Z" fill="#30B795"/>
<path d="M62.8383 86.436C60.1982 86.436 58.0562 88.5764 58.0562 91.2179C58.0562 93.8595 60.1981 95.9998 62.8381 95.9998C65.4796 95.9998 67.6216 93.8595 67.6216 91.2179C67.6216 88.5766 65.4798 86.436 62.8383 86.436Z" fill="#30B795"/>
<path d="M48.001 83.4963C50.6412 83.4963 52.783 85.6366 52.783 88.2782C52.783 90.9198 50.6411 93.0601 48.001 93.0601C45.3595 93.0601 43.2178 90.9198 43.2178 88.2782C43.2178 85.6366 45.3595 83.4963 48.001 83.4963Z" fill="#30B795"/>
<path d="M86.4365 62.8381C86.4365 60.1979 88.5768 58.0562 91.2183 58.0562C93.8598 58.0562 96.0002 60.1981 96.0002 62.8381C96.0002 65.4796 93.8598 67.6213 91.2183 67.6213C88.5768 67.6213 86.4364 65.4796 86.4365 62.8381Z" fill="#30B795"/>
<path d="M86.4365 33.1617C86.4365 35.8018 88.5769 37.9437 91.2184 37.9437C93.8599 37.9437 96.0003 35.8018 96.0003 33.1618C96.0003 30.5203 93.8599 28.3784 91.2184 28.3784C88.5771 28.3783 86.4367 30.52 86.4365 33.1617Z" fill="#30B795"/>
<path d="M83.4966 47.9992C83.4966 45.359 85.6368 43.2173 88.2785 43.2173C90.92 43.2173 93.0604 45.3592 93.0604 47.9992C93.0604 50.6407 90.92 52.7826 88.2785 52.7826C85.637 52.7827 83.4966 50.6407 83.4966 47.9992Z" fill="#30B795"/>
<path d="M9.56381 33.1617C9.56381 35.8018 7.42328 37.9436 4.78177 37.9436C2.14025 37.9436 0 35.8017 0 33.1617C0 30.5202 2.14025 28.3784 4.78177 28.3784C7.42328 28.3784 9.56394 30.5202 9.56381 33.1617Z" fill="#30B795"/>
<path d="M9.56381 62.8381C9.56381 60.1979 7.42342 58.0559 4.7819 58.0559C2.14039 58.0559 0 60.1979 0 62.8381C0 65.4796 2.14025 67.6214 4.78177 67.6214C7.42328 67.6214 9.56367 65.4796 9.56381 62.8381Z" fill="#30B795"/>
<path d="M12.5042 48.0006C12.5042 50.6407 10.3638 52.7825 7.72233 52.7825C5.08082 52.7825 2.94043 50.6406 2.94043 48.0006C2.94043 45.359 5.08082 43.2173 7.72233 43.2173C10.3638 43.2173 12.5042 45.359 12.5042 48.0006Z" fill="#30B795"/>
<path d="M48.4914 42.8932V48.603H37.0718V42.8932C37.0718 39.7398 39.6281 37.1833 42.7816 37.1833C45.9349 37.1833 48.4914 39.7396 48.4914 42.8932Z" stroke="black" stroke-width="1.28572" stroke-linecap="round" stroke-linejoin="round"/>
<path d="M37.0718 60.0229V48.6033" stroke="black" stroke-width="1.28572" stroke-linecap="round" stroke-linejoin="round"/>
<path d="M48.4917 48.6035V60.0231" stroke="black" stroke-width="1.28572" stroke-linecap="round" stroke-linejoin="round"/>
<path d="M60.1353 37.1833V60.0229" stroke="black" stroke-width="1.28572" stroke-linecap="round" stroke-linejoin="round"/>
</svg>
