<svg width="102" height="41" viewBox="0 0 102 41" fill="none" xmlns="http://www.w3.org/2000/svg">
<g clip-path="url(#clip0_4148_1288)">
<path d="M40.2627 15.7108C40.2627 14.1721 40.6054 12.7978 41.2911 11.5878C41.9915 10.3629 42.9381 9.41433 44.1303 8.74211C45.3375 8.05494 46.6862 7.71137 48.1768 7.71137C49.9206 7.71137 51.4481 8.15952 52.7598 9.05581C54.0715 9.9521 54.9881 11.192 55.5096 12.7754H51.9103C51.5526 12.0285 51.0457 11.4683 50.39 11.0949C49.749 10.7214 49.004 10.5347 48.1544 10.5347C47.2452 10.5347 46.433 10.7513 45.7176 11.1845C45.0172 11.6028 44.4657 12.2003 44.0632 12.9771C43.6759 13.7539 43.482 14.6651 43.482 15.7108C43.482 16.7415 43.6759 17.6528 44.0632 18.4445C44.4657 19.2213 45.0172 19.8263 45.7176 20.2595C46.433 20.6778 47.2452 20.8869 48.1544 20.8869C49.004 20.8869 49.749 20.7002 50.39 20.3267C51.0457 19.9383 51.5526 19.3706 51.9103 18.6237H55.5096C54.9881 20.2221 54.0715 21.4695 52.7598 22.3658C51.4631 23.2471 49.9356 23.6878 48.1768 23.6878C46.6862 23.6878 45.3375 23.3517 44.1303 22.6795C42.9381 21.9923 41.9915 21.0437 41.2911 19.8337C40.6054 18.6237 40.2627 17.2494 40.2627 15.7108ZM65.4263 23.7102C63.9658 23.7102 62.6244 23.3666 61.4022 22.6795C60.1799 21.9923 59.2113 21.0437 58.4959 19.8337C57.7805 18.6088 57.4228 17.227 57.4228 15.6884C57.4228 14.1647 57.7805 12.7978 58.4959 11.5878C59.2113 10.3629 60.1799 9.40687 61.4022 8.7197C62.6244 8.03253 63.9658 7.68896 65.4263 7.68896C66.9018 7.68896 68.2432 8.03253 69.4504 8.7197C70.6727 9.40687 71.634 10.3629 72.3344 11.5878C73.0498 12.7978 73.4075 14.1647 73.4075 15.6884C73.4075 17.227 73.0498 18.6088 72.3344 19.8337C71.634 21.0437 70.6727 21.9923 69.4504 22.6795C68.2282 23.3666 66.8868 23.7102 65.4263 23.7102ZM65.4263 20.9093C66.3653 20.9093 67.1924 20.7002 67.9078 20.2819C68.6232 19.8487 69.1821 19.2362 69.5846 18.4445C69.987 17.6528 70.1882 16.7341 70.1882 15.6884C70.1882 14.6427 69.987 13.7315 69.5846 12.9547C69.1821 12.163 68.6232 11.558 67.9078 11.1397C67.1924 10.7214 66.3653 10.5123 65.4263 10.5123C64.4873 10.5123 63.6528 10.7214 62.9224 11.1397C62.207 11.558 61.6481 12.163 61.2457 12.9547C60.8433 13.7315 60.6421 14.6427 60.6421 15.6884C60.6421 16.7341 60.8433 17.6528 61.2457 18.4445C61.6481 19.2362 62.207 19.8487 62.9224 20.2819C63.6528 20.7002 64.4873 20.9093 65.4263 20.9093ZM81.1909 7.91304C82.8302 7.91304 84.2687 8.2342 85.5056 8.87655C86.7576 9.51891 87.7189 10.4376 88.3896 11.6327C89.0753 12.8128 89.418 14.1871 89.418 15.7556C89.418 17.3241 89.0753 18.6984 88.3896 19.8785C87.7189 21.0437 86.7576 21.9475 85.5056 22.5898C84.2687 23.2322 82.8302 23.5533 81.1909 23.5533H75.736V7.91304H81.1909ZM81.0791 20.8869C82.7184 20.8869 83.9854 20.4387 84.8797 19.5424C85.7739 18.6461 86.221 17.3839 86.221 15.7556C86.221 14.1273 85.7739 12.8576 84.8797 11.9464C83.9854 11.0202 82.7184 10.5571 81.0791 10.5571H78.8659V20.8869H81.0791ZM94.8907 10.4451V14.3663H100.144V16.8536H94.8907V20.9989H100.815V23.5533H91.7608V7.89063H100.815V10.4451H94.8907Z" fill="black"/>
<path d="M44.3273 28.7985C45.2578 28.7985 46.071 28.9792 46.7669 29.3405C47.4711 29.6934 48.0118 30.206 48.3891 30.8782C48.7747 31.542 48.9676 32.3192 48.9676 33.2099C48.9676 34.1006 48.7747 34.8737 48.3891 35.5291C48.0118 36.1845 47.4711 36.6887 46.7669 37.0416C46.071 37.3861 45.2578 37.5584 44.3273 37.5584H41.4727V28.7985H44.3273ZM44.3273 36.3862C45.3501 36.3862 46.1339 36.1089 46.6789 35.5543C47.2238 34.9997 47.4962 34.2183 47.4962 33.2099C47.4962 32.1932 47.2238 31.3991 46.6789 30.8278C46.1339 30.2564 45.3501 29.9707 44.3273 29.9707H42.9062V36.3862H44.3273ZM52.6392 28.7985V37.5584H51.2056V28.7985H52.6392ZM58.2188 37.6466C57.632 37.6466 57.1038 37.5458 56.6343 37.3441C56.1649 37.134 55.796 36.8399 55.5277 36.4618C55.2594 36.0837 55.1253 35.6425 55.1253 35.1384H56.6595C56.693 35.5165 56.8397 35.8274 57.0996 36.0711C57.3679 36.3148 57.741 36.4366 58.2188 36.4366C58.7135 36.4366 59.0991 36.319 59.3758 36.0837C59.6524 35.84 59.7907 35.5291 59.7907 35.151C59.7907 34.8569 59.7027 34.6174 59.5267 34.4325C59.359 34.2477 59.1452 34.1048 58.8853 34.004C58.6338 33.9032 58.2817 33.7939 57.829 33.6763C57.2589 33.525 56.7936 33.3738 56.4331 33.2225C56.081 33.0629 55.7792 32.8192 55.5277 32.4915C55.2762 32.1638 55.1504 31.7269 55.1504 31.1807C55.1504 30.6765 55.2762 30.2354 55.5277 29.8572C55.7792 29.4791 56.1313 29.1892 56.584 28.9876C57.0367 28.7859 57.5607 28.6851 58.1559 28.6851C59.0027 28.6851 59.6943 28.8993 60.2309 29.3279C60.7758 29.748 61.0776 30.3278 61.1363 31.0672H59.5518C59.5267 30.7479 59.3758 30.4748 59.0991 30.248C58.8224 30.0211 58.4578 29.9077 58.005 29.9077C57.5942 29.9077 57.2589 30.0127 56.999 30.2228C56.7391 30.4328 56.6092 30.7353 56.6092 31.1303C56.6092 31.3991 56.6888 31.6218 56.8481 31.7983C57.0158 31.9663 57.2254 32.1008 57.4769 32.2016C57.7284 32.3024 58.0721 32.4117 58.5081 32.5293C59.0865 32.689 59.556 32.8486 59.9165 33.0083C60.2854 33.1679 60.5956 33.4158 60.8471 33.7519C61.107 34.0796 61.2369 34.5208 61.2369 35.0753C61.2369 35.5207 61.1153 35.9408 60.8722 36.3358C60.6375 36.7307 60.2896 37.05 59.8285 37.2937C59.3758 37.529 58.8392 37.6466 58.2188 37.6466ZM69.392 28.7985V29.9707H67.0656V37.5584H65.632V29.9707H63.293V28.7985H69.392ZM76.2012 37.5584L74.1892 34.0544H73.0951V37.5584H71.6615V28.7985H74.6796C75.3503 28.7985 75.9162 28.9161 76.3773 29.1514C76.8468 29.3867 77.1947 29.7018 77.421 30.0967C77.6558 30.4917 77.7731 30.9328 77.7731 31.4202C77.7731 31.9915 77.6055 32.5125 77.2701 32.9831C76.9432 33.4452 76.436 33.7603 75.7485 33.9284L77.9115 37.5584H76.2012ZM73.0951 32.9074H74.6796C75.2161 32.9074 75.6186 32.773 75.8868 32.5041C76.1635 32.2352 76.3018 31.8739 76.3018 31.4202C76.3018 30.9664 76.1677 30.6135 75.8994 30.3614C75.6311 30.1009 75.2245 29.9707 74.6796 29.9707H73.0951V32.9074ZM81.858 28.7985V37.5584H80.4244V28.7985H81.858ZM84.0797 33.1595C84.0797 32.3024 84.2767 31.5336 84.6707 30.853C85.0731 30.1723 85.6139 29.643 86.2929 29.2648C86.9804 28.8783 87.7307 28.6851 88.5439 28.6851C89.4745 28.6851 90.3003 28.9161 91.0213 29.3783C91.7506 29.832 92.2788 30.479 92.6058 31.3193H90.8829C90.6566 30.8572 90.3422 30.5127 89.9398 30.2858C89.5374 30.0589 89.0721 29.9455 88.5439 29.9455C87.9655 29.9455 87.4499 30.0757 86.9971 30.3362C86.5444 30.5967 86.1881 30.9706 85.9282 31.458C85.6767 31.9453 85.551 32.5125 85.551 33.1595C85.551 33.8065 85.6767 34.3737 85.9282 34.8611C86.1881 35.3484 86.5444 35.7266 86.9971 35.9955C87.4499 36.2559 87.9655 36.3862 88.5439 36.3862C89.0721 36.3862 89.5374 36.2727 89.9398 36.0459C90.3422 35.819 90.6566 35.4745 90.8829 35.0123H92.6058C92.2788 35.8526 91.7506 36.4996 91.0213 36.9534C90.3003 37.4071 89.4745 37.634 88.5439 37.634C87.7223 37.634 86.972 37.4449 86.2929 37.0668C85.6139 36.6803 85.0731 36.1467 84.6707 35.4661C84.2767 34.7855 84.0797 34.0166 84.0797 33.1595ZM100.748 28.7985V29.9707H98.4212V37.5584H96.9876V29.9707H94.6485V28.7985H100.748Z" fill="black"/>
<ellipse cx="17.3864" cy="22.7897" rx="17.3864" ry="16.9288" fill="white"/>
<path d="M27.8698 8.51926V31.6569C27.8699 32.0025 27.7333 32.3341 27.49 32.5794C27.2467 32.8248 26.9163 32.9641 26.5707 32.967H26.4516C26.2544 32.9877 26.055 32.9645 25.8678 32.899C25.6806 32.8334 25.5102 32.7272 25.369 32.588L17.9314 24.76C17.6861 24.5143 17.5484 24.1814 17.5484 23.8343C17.5484 23.4871 17.6861 23.1542 17.9314 22.9085L25.2932 15.8168V6.97099C22.9267 5.84264 20.3366 5.26162 17.7149 5.27111C13.4944 5.2626 9.41013 6.76435 6.20029 9.5049C2.99044 12.2455 0.866824 16.044 0.213284 20.214C-0.440254 24.3839 0.41941 28.6501 2.63689 32.2414C4.85436 35.8328 8.28335 38.5123 12.304 39.7954C16.3247 41.079 20.6718 40.8811 24.5596 39.2388C28.4473 37.596 31.6192 34.6166 33.5019 30.8389C35.3847 27.0613 35.8538 22.7347 34.8249 18.6412C33.7959 14.5477 31.3366 10.9574 27.8915 8.51926H27.8698ZM19.4363 32.588C19.1869 32.8346 18.8504 32.973 18.4998 32.973C18.1491 32.973 17.8126 32.8346 17.5633 32.588L10.0824 24.76C9.83716 24.5143 9.69941 24.1814 9.69941 23.8343C9.69941 23.4871 9.83716 23.1542 10.0824 22.9085L17.6608 15.6327C17.9064 15.3874 18.2393 15.2497 18.5864 15.2497C18.9335 15.2497 19.2664 15.3874 19.512 15.6327C19.7573 15.8784 19.8951 16.2113 19.8951 16.5584C19.8951 16.9056 19.7573 17.2385 19.512 17.4842L12.8864 23.8722L19.4687 30.7041C19.7153 30.9534 19.8536 31.29 19.8536 31.6406C19.8536 31.9913 19.7153 32.3279 19.4687 32.5772" fill="#30B795"/>
<path d="M20.624 23.8946L25.2042 28.6477V19.4663L20.624 23.8946Z" fill="#30B795"/>
</g>
<defs>
<clipPath id="clip0_4148_1288">
<rect width="102" height="40.2632" fill="white" transform="translate(0 0.368652)"/>
</clipPath>
</defs>
</svg>
