<svg width="103" height="94" viewBox="0 0 103 94" fill="none" xmlns="http://www.w3.org/2000/svg">
<path d="M51.7325 79.6244H7.38598C3.85861 79.6244 1 76.766 1 73.2383V24.5332H84.1079V49.1649" stroke="black" stroke-linecap="round" stroke-linejoin="round"/>
<path d="M84.1058 16.4669V8.38081C84.1058 4.85679 81.2488 2 77.7247 2H7.38097C3.85694 2 1 4.85679 1 8.38081V16.4669H84.1058Z" stroke="black" stroke-linecap="round" stroke-linejoin="round"/>
<path d="M1 16.4668H84.1058V24.5304H1V16.4668Z" stroke="black" stroke-linecap="round" stroke-linejoin="round"/>
<path d="M11.0391 9.2334H11.5106" stroke="black" stroke-linecap="round" stroke-linejoin="round"/>
<path d="M16.168 9.2334H16.6395" stroke="black" stroke-linecap="round" stroke-linejoin="round"/>
<path d="M21.2959 9.2334H21.7676" stroke="black" stroke-linecap="round" stroke-linejoin="round"/>
<path d="M18.8184 39.0115H66.2897" stroke="black" stroke-linecap="round" stroke-linejoin="round"/>
<path d="M18.8184 52.0786H42.554" stroke="black" stroke-linecap="round" stroke-linejoin="round"/>
<path d="M102.811 61.2822V81.5327C102.811 85.4884 99.6048 88.6949 95.6492 88.6949H63.4649C59.5093 88.6949 56.3027 85.4884 56.3027 81.5327V61.2822C56.3027 57.3264 59.5093 54.1199 63.4649 54.1199H95.6492C99.6047 54.1199 102.811 57.3264 102.811 61.2822Z" fill="#30B795"/>
<path d="M72.9303 74.9298L68.1904 71.4111L72.9303 67.8848" stroke="black" stroke-linecap="round" stroke-linejoin="round"/>
<path d="M86.1846 67.8848L90.9245 71.4036L86.1846 74.9301" stroke="black" stroke-linecap="round" stroke-linejoin="round"/>
<path d="M82.8928 63.376L76.2217 79.4389" stroke="black" stroke-linecap="round" stroke-linejoin="round"/>
</svg>
