<svg width="102" height="42" viewBox="0 0 102 42" fill="none" xmlns="http://www.w3.org/2000/svg">
<g clip-path="url(#clip0_4009_18883)">
<path d="M40.2627 16.2108C40.2627 14.6721 40.6054 13.2978 41.2911 12.0878C41.9915 10.8629 42.9381 9.91433 44.1303 9.24211C45.3375 8.55494 46.6862 8.21137 48.1768 8.21137C49.9206 8.21137 51.4481 8.65952 52.7598 9.55581C54.0715 10.4521 54.9881 11.692 55.5096 13.2754H51.9103C51.5526 12.5285 51.0457 11.9683 50.39 11.5949C49.749 11.2214 49.004 11.0347 48.1544 11.0347C47.2452 11.0347 46.433 11.2513 45.7176 11.6845C45.0172 12.1028 44.4657 12.7003 44.0632 13.4771C43.6759 14.2539 43.482 15.1651 43.482 16.2108C43.482 17.2415 43.6759 18.1528 44.0632 18.9445C44.4657 19.7213 45.0172 20.3263 45.7176 20.7595C46.433 21.1778 47.2452 21.3869 48.1544 21.3869C49.004 21.3869 49.749 21.2002 50.39 20.8267C51.0457 20.4383 51.5526 19.8706 51.9103 19.1237H55.5096C54.9881 20.7221 54.0715 21.9695 52.7598 22.8658C51.4631 23.7471 49.9356 24.1878 48.1768 24.1878C46.6862 24.1878 45.3375 23.8517 44.1303 23.1795C42.9381 22.4923 41.9915 21.5437 41.2911 20.3337C40.6054 19.1237 40.2627 17.7494 40.2627 16.2108ZM65.4263 24.2102C63.9658 24.2102 62.6244 23.8666 61.4022 23.1795C60.1799 22.4923 59.2113 21.5437 58.4959 20.3337C57.7805 19.1088 57.4228 17.727 57.4228 16.1884C57.4228 14.6647 57.7805 13.2978 58.4959 12.0878C59.2113 10.8629 60.1799 9.90687 61.4022 9.2197C62.6244 8.53253 63.9658 8.18896 65.4263 8.18896C66.9018 8.18896 68.2432 8.53253 69.4504 9.2197C70.6727 9.90687 71.634 10.8629 72.3344 12.0878C73.0498 13.2978 73.4075 14.6647 73.4075 16.1884C73.4075 17.727 73.0498 19.1088 72.3344 20.3337C71.634 21.5437 70.6727 22.4923 69.4504 23.1795C68.2282 23.8666 66.8868 24.2102 65.4263 24.2102ZM65.4263 21.4093C66.3653 21.4093 67.1924 21.2002 67.9078 20.7819C68.6232 20.3487 69.1821 19.7362 69.5846 18.9445C69.987 18.1528 70.1882 17.2341 70.1882 16.1884C70.1882 15.1427 69.987 14.2315 69.5846 13.4547C69.1821 12.663 68.6232 12.058 67.9078 11.6397C67.1924 11.2214 66.3653 11.0123 65.4263 11.0123C64.4873 11.0123 63.6528 11.2214 62.9224 11.6397C62.207 12.058 61.6481 12.663 61.2457 13.4547C60.8433 14.2315 60.6421 15.1427 60.6421 16.1884C60.6421 17.2341 60.8433 18.1528 61.2457 18.9445C61.6481 19.7362 62.207 20.3487 62.9224 20.7819C63.6528 21.2002 64.4873 21.4093 65.4263 21.4093ZM81.1909 8.41304C82.8302 8.41304 84.2687 8.7342 85.5056 9.37655C86.7576 10.0189 87.7189 10.9376 88.3896 12.1327C89.0753 13.3128 89.418 14.6871 89.418 16.2556C89.418 17.8241 89.0753 19.1984 88.3896 20.3785C87.7189 21.5437 86.7576 22.4475 85.5056 23.0898C84.2687 23.7322 82.8302 24.0533 81.1909 24.0533H75.736V8.41304H81.1909ZM81.0791 21.3869C82.7184 21.3869 83.9854 20.9387 84.8797 20.0424C85.7739 19.1461 86.221 17.8839 86.221 16.2556C86.221 14.6273 85.7739 13.3576 84.8797 12.4464C83.9854 11.5202 82.7184 11.0571 81.0791 11.0571H78.8659V21.3869H81.0791ZM94.8907 10.9451V14.8663H100.144V17.3536H94.8907V21.4989H100.815V24.0533H91.7608V8.39063H100.815V10.9451H94.8907Z" fill="white"/>
<path d="M44.3273 29.2985C45.2578 29.2985 46.071 29.4792 46.7669 29.8405C47.4711 30.1934 48.0118 30.706 48.3891 31.3782C48.7747 32.042 48.9676 32.8192 48.9676 33.7099C48.9676 34.6006 48.7747 35.3737 48.3891 36.0291C48.0118 36.6845 47.4711 37.1887 46.7669 37.5416C46.071 37.8861 45.2578 38.0584 44.3273 38.0584H41.4727V29.2985H44.3273ZM44.3273 36.8862C45.3501 36.8862 46.1339 36.6089 46.6789 36.0543C47.2238 35.4997 47.4962 34.7183 47.4962 33.7099C47.4962 32.6932 47.2238 31.8991 46.6789 31.3278C46.1339 30.7564 45.3501 30.4707 44.3273 30.4707H42.9062V36.8862H44.3273ZM52.6392 29.2985V38.0584H51.2056V29.2985H52.6392ZM58.2188 38.1466C57.632 38.1466 57.1038 38.0458 56.6343 37.8441C56.1649 37.634 55.796 37.3399 55.5277 36.9618C55.2594 36.5837 55.1253 36.1425 55.1253 35.6384H56.6595C56.693 36.0165 56.8397 36.3274 57.0996 36.5711C57.3679 36.8148 57.741 36.9366 58.2188 36.9366C58.7135 36.9366 59.0991 36.819 59.3758 36.5837C59.6524 36.34 59.7907 36.0291 59.7907 35.651C59.7907 35.3569 59.7027 35.1174 59.5267 34.9325C59.359 34.7477 59.1452 34.6048 58.8853 34.504C58.6338 34.4032 58.2817 34.2939 57.829 34.1763C57.2589 34.025 56.7936 33.8738 56.4331 33.7225C56.081 33.5629 55.7792 33.3192 55.5277 32.9915C55.2762 32.6638 55.1504 32.2269 55.1504 31.6807C55.1504 31.1765 55.2762 30.7354 55.5277 30.3572C55.7792 29.9791 56.1313 29.6892 56.584 29.4876C57.0367 29.2859 57.5607 29.1851 58.1559 29.1851C59.0027 29.1851 59.6943 29.3993 60.2309 29.8279C60.7758 30.248 61.0776 30.8278 61.1363 31.5672H59.5518C59.5267 31.2479 59.3758 30.9748 59.0991 30.748C58.8224 30.5211 58.4578 30.4077 58.005 30.4077C57.5942 30.4077 57.2589 30.5127 56.999 30.7228C56.7391 30.9328 56.6092 31.2353 56.6092 31.6303C56.6092 31.8991 56.6888 32.1218 56.8481 32.2983C57.0158 32.4663 57.2254 32.6008 57.4769 32.7016C57.7284 32.8024 58.0721 32.9117 58.5081 33.0293C59.0865 33.189 59.556 33.3486 59.9165 33.5083C60.2854 33.6679 60.5956 33.9158 60.8471 34.2519C61.107 34.5796 61.2369 35.0208 61.2369 35.5753C61.2369 36.0207 61.1153 36.4408 60.8722 36.8358C60.6375 37.2307 60.2896 37.55 59.8285 37.7937C59.3758 38.029 58.8392 38.1466 58.2188 38.1466ZM69.392 29.2985V30.4707H67.0656V38.0584H65.632V30.4707H63.293V29.2985H69.392ZM76.2012 38.0584L74.1892 34.5544H73.0951V38.0584H71.6615V29.2985H74.6796C75.3503 29.2985 75.9162 29.4161 76.3773 29.6514C76.8468 29.8867 77.1947 30.2018 77.421 30.5967C77.6558 30.9917 77.7731 31.4328 77.7731 31.9202C77.7731 32.4915 77.6055 33.0125 77.2701 33.4831C76.9432 33.9452 76.436 34.2603 75.7485 34.4284L77.9115 38.0584H76.2012ZM73.0951 33.4074H74.6796C75.2161 33.4074 75.6186 33.273 75.8868 33.0041C76.1635 32.7352 76.3018 32.3739 76.3018 31.9202C76.3018 31.4664 76.1677 31.1135 75.8994 30.8614C75.6311 30.6009 75.2245 30.4707 74.6796 30.4707H73.0951V33.4074ZM81.858 29.2985V38.0584H80.4244V29.2985H81.858ZM84.0797 33.6595C84.0797 32.8024 84.2767 32.0336 84.6707 31.353C85.0731 30.6723 85.6139 30.143 86.2929 29.7648C86.9804 29.3783 87.7307 29.1851 88.5439 29.1851C89.4745 29.1851 90.3003 29.4161 91.0213 29.8783C91.7506 30.332 92.2788 30.979 92.6058 31.8193H90.8829C90.6566 31.3572 90.3422 31.0127 89.9398 30.7858C89.5374 30.5589 89.0721 30.4455 88.5439 30.4455C87.9655 30.4455 87.4499 30.5757 86.9971 30.8362C86.5444 31.0967 86.1881 31.4706 85.9282 31.958C85.6767 32.4453 85.551 33.0125 85.551 33.6595C85.551 34.3065 85.6767 34.8737 85.9282 35.3611C86.1881 35.8484 86.5444 36.2266 86.9971 36.4955C87.4499 36.7559 87.9655 36.8862 88.5439 36.8862C89.0721 36.8862 89.5374 36.7727 89.9398 36.5459C90.3422 36.319 90.6566 35.9745 90.8829 35.5123H92.6058C92.2788 36.3526 91.7506 36.9996 91.0213 37.4534C90.3003 37.9071 89.4745 38.134 88.5439 38.134C87.7223 38.134 86.972 37.9449 86.2929 37.5668C85.6139 37.1803 85.0731 36.6467 84.6707 35.9661C84.2767 35.2855 84.0797 34.5166 84.0797 33.6595ZM100.748 29.2985V30.4707H98.4212V38.0584H96.9876V30.4707H94.6485V29.2985H100.748Z" fill="white"/>
<ellipse cx="17.3864" cy="23.2877" rx="17.3864" ry="16.9288" fill="white"/>
<path d="M27.8698 9.01829V32.1559C27.8699 32.5015 27.7333 32.8331 27.49 33.0785C27.2467 33.3239 26.9163 33.4631 26.5707 33.466H26.4516C26.2544 33.4867 26.055 33.4635 25.8678 33.398C25.6806 33.3324 25.5102 33.2262 25.369 33.087L17.9314 25.259C17.6861 25.0134 17.5484 24.6804 17.5484 24.3333C17.5484 23.9862 17.6861 23.6532 17.9314 23.4076L25.2932 16.3158V7.47001C22.9267 6.34166 20.3366 5.76065 17.7149 5.77013C13.4944 5.76163 9.41013 7.26337 6.20029 10.0039C2.99044 12.7445 0.866824 16.543 0.213284 20.713C-0.440254 24.8829 0.41941 29.1491 2.63689 32.7405C4.85436 36.3319 8.28335 39.0113 12.304 40.2945C16.3247 41.578 20.6718 41.3802 24.5596 39.7378C28.4473 38.095 31.6192 35.1156 33.5019 31.338C35.3847 27.5603 35.8538 23.2337 34.8249 19.1403C33.7959 15.0468 31.3366 11.4564 27.8915 9.01829H27.8698ZM19.4363 33.087C19.1869 33.3337 18.8504 33.472 18.4998 33.472C18.1491 33.472 17.8126 33.3337 17.5633 33.087L10.0824 25.259C9.83716 25.0134 9.69941 24.6804 9.69941 24.3333C9.69941 23.9862 9.83716 23.6532 10.0824 23.4076L17.6608 16.1317C17.9064 15.8864 18.2393 15.7487 18.5864 15.7487C18.9335 15.7487 19.2664 15.8864 19.512 16.1317C19.7573 16.3774 19.8951 16.7103 19.8951 17.0574C19.8951 17.4046 19.7573 17.7375 19.512 17.9832L12.8864 24.3712L19.4687 31.2031C19.7153 31.4524 19.8536 31.789 19.8536 32.1397C19.8536 32.4903 19.7153 32.8269 19.4687 33.0762" fill="#30B795"/>
<path d="M20.624 24.3932L25.2042 29.1463V19.9648L20.624 24.3932Z" fill="#30B795"/>
</g>
<defs>
<clipPath id="clip0_4009_18883">
<rect width="102" height="40.2632" fill="white" transform="translate(0 0.868652)"/>
</clipPath>
</defs>
</svg>
