<svg width="143" height="115" viewBox="0 0 143 115" fill="none" xmlns="http://www.w3.org/2000/svg">
<g clip-path="url(#clip0_4132_2328)">
<mask id="mask0_4132_2328" style="mask-type:luminance" maskUnits="userSpaceOnUse" x="0" y="0" width="158" height="158">
<path d="M158 0H0V158H158V0Z" fill="white"/>
</mask>
<g mask="url(#mask0_4132_2328)">
<path d="M62.3023 64.487L59.0367 59.1871C61.2684 56.9747 63.0771 54.4406 64.4392 51.7119L70.5046 53.1525C71.8564 53.4734 73.2184 52.6343 73.5396 51.2825L75.3553 43.638C75.6763 42.2862 74.8372 40.9242 73.4853 40.6031L67.4198 39.1624C67.4375 36.1083 66.9613 33.0316 65.9554 30.0565L71.2555 26.7909C72.4473 26.0565 72.8166 24.5012 72.0823 23.3095L67.9684 16.6328C67.2342 15.4411 65.679 15.0717 64.4871 15.8061L59.1871 19.0717C56.9747 16.84 54.4407 15.0313 51.712 13.6692L53.1526 7.60376C53.4737 6.25186 52.6345 4.88989 51.2826 4.56881L43.638 2.75318C42.2862 2.43222 40.9242 3.2714 40.6031 4.62318L39.1625 10.6886C36.1083 10.671 33.0286 11.1591 30.0492 12.1576L26.7835 6.8575C26.0492 5.66579 24.494 5.2963 23.3021 6.03065L16.6326 10.1401C15.4409 10.8744 15.0716 12.4296 15.8059 13.6214L19.0716 18.9214C16.8354 21.1265 15.0266 23.6605 13.669 26.3965L7.60361 24.9559C6.25179 24.635 4.88982 25.4742 4.56866 26.8259L2.75316 34.4704C2.43207 35.8223 3.27126 37.1843 4.62315 37.5054L10.6887 38.9459C10.6782 41.9955 11.1545 45.0723 12.153 48.0519L6.85295 51.3176C5.66137 52.0518 5.29187 53.6071 6.02615 54.7988L10.14 61.4755C10.8743 62.6672 12.4297 63.0366 13.6213 62.3024L18.9214 59.0368C21.1264 61.2729 23.6603 63.0815 26.3964 64.4391L24.9558 70.5047C24.6347 71.8566 25.4739 73.2186 26.8258 73.5397L34.4702 75.3552C35.822 75.6762 37.184 74.837 37.5051 73.4852L38.9457 67.4198C41.9998 67.4375 45.0841 66.9569 48.0591 65.951L51.3247 71.2509C52.059 72.4426 53.6143 72.8121 54.806 72.0778L61.4755 67.9684C62.6673 67.2341 63.0366 65.6787 62.3023 64.487ZM26.5946 46.7312C22.3555 39.8512 24.4971 30.8338 31.3771 26.5947C38.2571 22.3556 47.2746 24.4974 51.5136 31.3772C55.7527 38.2571 53.611 47.2747 46.7311 51.5137C39.8512 55.7528 30.8337 53.6112 26.5946 46.7312Z" stroke="black" stroke-width="2.04815" stroke-linecap="round" stroke-linejoin="round"/>
<path d="M56.5386 95.7266L54.4798 101.898" stroke="black" stroke-width="2.04815" stroke-linecap="round" stroke-linejoin="round"/>
<path d="M81.9659 42.5891L65.2908 92.5783L57.0511 99.5704C55.9141 100.535 54.1591 99.9502 53.8281 98.4963L51.4285 87.954L68.1006 37.9743C68.7839 35.9258 70.9985 34.8191 73.047 35.5024L79.5002 37.6551C81.5434 38.3368 82.6475 40.5458 81.9659 42.5891Z" fill="#30B795"/>
<path d="M69.6025 45.6624L76.1462 47.8452" stroke="black" stroke-width="2.04815" stroke-linecap="round" stroke-linejoin="round"/>
<path d="M55.1602 88.9583L61.7037 91.141" stroke="black" stroke-width="2.04815" stroke-linecap="round" stroke-linejoin="round"/>
<path d="M44.3071 102.425C44.3071 102.425 48.4463 102.425 54.3619 102.425" stroke="black" stroke-width="2.04815" stroke-linecap="round" stroke-linejoin="round"/>
</g>
</g>
<defs>
<clipPath id="clip0_4132_2328">
<rect width="158" height="115" fill="white"/>
</clipPath>
</defs>
</svg>
