<svg width="43" height="43" viewBox="0 0 43 43" fill="none" xmlns="http://www.w3.org/2000/svg">
<path d="M21.3962 3.5625C19.0567 3.5625 16.7401 4.0233 14.5786 4.9186C12.4172 5.81389 10.4533 7.12614 8.79898 8.78043C5.458 12.1214 3.58105 16.6528 3.58105 21.3776C3.58105 29.2519 8.694 35.9326 15.7666 38.302C16.6574 38.4445 16.9424 37.8923 16.9424 37.4112V34.4005C12.0076 35.4694 10.9565 32.0133 10.9565 32.0133C10.137 29.9467 8.97904 29.3944 8.97904 29.3944C7.35786 28.2899 9.10374 28.3255 9.10374 28.3255C10.8853 28.4502 11.8295 30.1605 11.8295 30.1605C13.3794 32.8684 15.9982 32.0667 17.0137 31.6391C17.174 30.4812 17.6372 29.6973 18.136 29.2519C14.1811 28.8065 10.0301 27.2744 10.0301 20.4869C10.0301 18.5094 10.7071 16.9238 11.8651 15.659C11.6869 15.2136 11.0634 13.3608 12.0432 10.9558C12.0432 10.9558 13.5397 10.4748 16.9424 12.7729C18.3498 12.381 19.8819 12.185 21.3962 12.185C22.9105 12.185 24.4426 12.381 25.85 12.7729C29.2527 10.4748 30.7491 10.9558 30.7491 10.9558C31.729 13.3608 31.1054 15.2136 30.9273 15.659C32.0853 16.9238 32.7622 18.5094 32.7622 20.4869C32.7622 27.2922 28.5935 28.7887 24.6207 29.2341C25.2621 29.7864 25.85 30.8731 25.85 32.5299V37.4112C25.85 37.8923 26.135 38.4623 27.0436 38.302C34.1162 35.9148 39.2113 29.2519 39.2113 21.3776C39.2113 19.0381 38.7505 16.7215 37.8552 14.5601C36.9599 12.3986 35.6477 10.4347 33.9934 8.78043C32.3391 7.12614 30.3752 5.81389 28.2137 4.9186C26.0523 4.0233 23.7357 3.5625 21.3962 3.5625Z" fill="#30B795"/>
</svg>
