<svg width="102" height="41" viewBox="0 0 102 41" fill="none" xmlns="http://www.w3.org/2000/svg">
<g clip-path="url(#clip0_3781_11007)">
<path d="M40.2622 15.7108C40.2622 14.1721 40.6049 12.7978 41.2906 11.5878C41.991 10.3629 42.9376 9.41433 44.1298 8.74211C45.3371 8.05494 46.6858 7.71137 48.1763 7.71137C49.9201 7.71137 51.4476 8.15952 52.7593 9.05581C54.071 9.9521 54.9876 11.192 55.5091 12.7754H51.9098C51.5521 12.0285 51.0452 11.4683 50.3895 11.0949C49.7486 10.7214 49.0035 10.5347 48.1539 10.5347C47.2447 10.5347 46.4325 10.7513 45.7171 11.1845C45.0167 11.6028 44.4652 12.2003 44.0628 12.9771C43.6754 13.7539 43.4815 14.6651 43.4815 15.7108C43.4815 16.7415 43.6754 17.6528 44.0628 18.4445C44.4652 19.2213 45.0167 19.8263 45.7171 20.2595C46.4325 20.6778 47.2447 20.8869 48.1539 20.8869C49.0035 20.8869 49.7486 20.7002 50.3895 20.3267C51.0452 19.9383 51.5521 19.3706 51.9098 18.6237H55.5091C54.9876 20.2221 54.071 21.4695 52.7593 22.3658C51.4626 23.2471 49.9351 23.6878 48.1763 23.6878C46.6858 23.6878 45.3371 23.3517 44.1298 22.6795C42.9376 21.9923 41.991 21.0437 41.2906 19.8337C40.6049 18.6237 40.2622 17.2494 40.2622 15.7108ZM65.4258 23.7102C63.9653 23.7102 62.624 23.3666 61.4017 22.6795C60.1795 21.9923 59.2108 21.0437 58.4954 19.8337C57.78 18.6088 57.4223 17.227 57.4223 15.6884C57.4223 14.1647 57.78 12.7978 58.4954 11.5878C59.2108 10.3629 60.1795 9.40687 61.4017 8.7197C62.624 8.03253 63.9653 7.68896 65.4258 7.68896C66.9013 7.68896 68.2427 8.03253 69.4499 8.7197C70.6722 9.40687 71.6335 10.3629 72.3339 11.5878C73.0493 12.7978 73.407 14.1647 73.407 15.6884C73.407 17.227 73.0493 18.6088 72.3339 19.8337C71.6335 21.0437 70.6722 21.9923 69.4499 22.6795C68.2277 23.3666 66.8863 23.7102 65.4258 23.7102ZM65.4258 20.9093C66.3648 20.9093 67.192 20.7002 67.9073 20.2819C68.6227 19.8487 69.1817 19.2362 69.5841 18.4445C69.9865 17.6528 70.1877 16.7341 70.1877 15.6884C70.1877 14.6427 69.9865 13.7315 69.5841 12.9547C69.1817 12.163 68.6227 11.558 67.9073 11.1397C67.192 10.7214 66.3648 10.5123 65.4258 10.5123C64.4869 10.5123 63.6523 10.7214 62.9219 11.1397C62.2065 11.558 61.6476 12.163 61.2452 12.9547C60.8428 13.7315 60.6416 14.6427 60.6416 15.6884C60.6416 16.7341 60.8428 17.6528 61.2452 18.4445C61.6476 19.2362 62.2065 19.8487 62.9219 20.2819C63.6523 20.7002 64.4869 20.9093 65.4258 20.9093ZM81.1904 7.91304C82.8297 7.91304 84.2682 8.2342 85.5051 8.87655C86.7571 9.51891 87.7184 10.4376 88.3891 11.6327C89.0748 12.8128 89.4175 14.1871 89.4175 15.7556C89.4175 17.3241 89.0748 18.6984 88.3891 19.8785C87.7184 21.0437 86.7571 21.9475 85.5051 22.5898C84.2682 23.2322 82.8297 23.5533 81.1904 23.5533H75.7355V7.91304H81.1904ZM81.0786 20.8869C82.718 20.8869 83.9849 20.4387 84.8792 19.5424C85.7734 18.6461 86.2205 17.3839 86.2205 15.7556C86.2205 14.1273 85.7734 12.8576 84.8792 11.9464C83.9849 11.0202 82.718 10.5571 81.0786 10.5571H78.8654V20.8869H81.0786ZM94.8902 10.4451V14.3663H100.144V16.8536H94.8902V20.9989H100.815V23.5533H91.7603V7.89063H100.815V10.4451H94.8902Z" fill="black"/>
<path d="M44.3277 28.7985C45.2583 28.7985 46.0715 28.9792 46.7674 29.3405C47.4716 29.6934 48.0123 30.206 48.3896 30.8782C48.7752 31.542 48.9681 32.3192 48.9681 33.2099C48.9681 34.1006 48.7752 34.8737 48.3896 35.5291C48.0123 36.1845 47.4716 36.6887 46.7674 37.0416C46.0715 37.3861 45.2583 37.5584 44.3277 37.5584H41.4731V28.7985H44.3277ZM44.3277 36.3862C45.3505 36.3862 46.1344 36.1089 46.6793 35.5543C47.2243 34.9997 47.4967 34.2183 47.4967 33.2099C47.4967 32.1932 47.2243 31.3991 46.6793 30.8278C46.1344 30.2564 45.3505 29.9707 44.3277 29.9707H42.9067V36.3862H44.3277ZM52.6397 28.7985V37.5584H51.2061V28.7985H52.6397ZM58.2193 37.6466C57.6325 37.6466 57.1043 37.5458 56.6348 37.3441C56.1653 37.134 55.7965 36.8399 55.5282 36.4618C55.2599 36.0837 55.1258 35.6425 55.1258 35.1384H56.66C56.6935 35.5165 56.8402 35.8274 57.1001 36.0711C57.3684 36.3148 57.7414 36.4366 58.2193 36.4366C58.7139 36.4366 59.0996 36.319 59.3762 36.0837C59.6529 35.84 59.7912 35.5291 59.7912 35.151C59.7912 34.8569 59.7032 34.6174 59.5271 34.4325C59.3595 34.2477 59.1457 34.1048 58.8858 34.004C58.6343 33.9032 58.2822 33.7939 57.8295 33.6763C57.2594 33.525 56.7941 33.3738 56.4336 33.2225C56.0815 33.0629 55.7797 32.8192 55.5282 32.4915C55.2767 32.1638 55.1509 31.7269 55.1509 31.1807C55.1509 30.6765 55.2767 30.2354 55.5282 29.8572C55.7797 29.4791 56.1318 29.1892 56.5845 28.9876C57.0372 28.7859 57.5612 28.6851 58.1564 28.6851C59.0032 28.6851 59.6948 28.8993 60.2314 29.3279C60.7763 29.748 61.0781 30.3278 61.1368 31.0672H59.5523C59.5271 30.7479 59.3762 30.4748 59.0996 30.248C58.8229 30.0211 58.4582 29.9077 58.0055 29.9077C57.5947 29.9077 57.2594 30.0127 56.9995 30.2228C56.7396 30.4328 56.6097 30.7353 56.6097 31.1303C56.6097 31.3991 56.6893 31.6218 56.8486 31.7983C57.0163 31.9663 57.2259 32.1008 57.4774 32.2016C57.7289 32.3024 58.0726 32.4117 58.5085 32.5293C59.087 32.689 59.5565 32.8486 59.917 33.0083C60.2859 33.1679 60.5961 33.4158 60.8476 33.7519C61.1075 34.0796 61.2374 34.5208 61.2374 35.0753C61.2374 35.5207 61.1158 35.9408 60.8727 36.3358C60.638 36.7307 60.2901 37.05 59.829 37.2937C59.3762 37.529 58.8397 37.6466 58.2193 37.6466ZM69.3925 28.7985V29.9707H67.0661V37.5584H65.6325V29.9707H63.2935V28.7985H69.3925ZM76.2017 37.5584L74.1896 34.0544H73.0956V37.5584H71.662V28.7985H74.6801C75.3508 28.7985 75.9167 28.9161 76.3778 29.1514C76.8472 29.3867 77.1952 29.7018 77.4215 30.0967C77.6562 30.4917 77.7736 30.9328 77.7736 31.4202C77.7736 31.9915 77.6059 32.5125 77.2706 32.9831C76.9436 33.4452 76.4364 33.7603 75.749 33.9284L77.9119 37.5584H76.2017ZM73.0956 32.9074H74.6801C75.2166 32.9074 75.619 32.773 75.8873 32.5041C76.164 32.2352 76.3023 31.8739 76.3023 31.4202C76.3023 30.9664 76.1682 30.6135 75.8999 30.3614C75.6316 30.1009 75.225 29.9707 74.6801 29.9707H73.0956V32.9074ZM81.8585 28.7985V37.5584H80.4249V28.7985H81.8585ZM84.0802 33.1595C84.0802 32.3024 84.2772 31.5336 84.6712 30.853C85.0736 30.1723 85.6143 29.643 86.2934 29.2648C86.9809 28.8783 87.7312 28.6851 88.5444 28.6851C89.475 28.6851 90.3008 28.9161 91.0218 29.3783C91.7511 29.832 92.2793 30.479 92.6062 31.3193H90.8834C90.6571 30.8572 90.3427 30.5127 89.9403 30.2858C89.5379 30.0589 89.0726 29.9455 88.5444 29.9455C87.9659 29.9455 87.4503 30.0757 86.9976 30.3362C86.5449 30.5967 86.1886 30.9706 85.9287 31.458C85.6772 31.9453 85.5515 32.5125 85.5515 33.1595C85.5515 33.8065 85.6772 34.3737 85.9287 34.8611C86.1886 35.3484 86.5449 35.7266 86.9976 35.9955C87.4503 36.2559 87.9659 36.3862 88.5444 36.3862C89.0726 36.3862 89.5379 36.2727 89.9403 36.0459C90.3427 35.819 90.6571 35.4745 90.8834 35.0123H92.6062C92.2793 35.8526 91.7511 36.4996 91.0218 36.9534C90.3008 37.4071 89.475 37.634 88.5444 37.634C87.7228 37.634 86.9725 37.4449 86.2934 37.0668C85.6143 36.6803 85.0736 36.1467 84.6712 35.4661C84.2772 34.7855 84.0802 34.0166 84.0802 33.1595ZM100.748 28.7985V29.9707H98.4216V37.5584H96.988V29.9707H94.649V28.7985H100.748Z" fill="black"/>
<ellipse cx="17.3864" cy="22.7897" rx="17.3864" ry="16.9288" fill="white"/>
<path d="M27.8698 8.51926V31.6569C27.8699 32.0025 27.7333 32.3341 27.49 32.5794C27.2467 32.8248 26.9163 32.9641 26.5707 32.967H26.4516C26.2544 32.9877 26.055 32.9645 25.8678 32.899C25.6806 32.8334 25.5102 32.7272 25.369 32.588L17.9314 24.76C17.6861 24.5143 17.5484 24.1814 17.5484 23.8343C17.5484 23.4871 17.6861 23.1542 17.9314 22.9085L25.2932 15.8168V6.97099C22.9267 5.84264 20.3366 5.26162 17.7149 5.27111C13.4944 5.2626 9.41013 6.76435 6.20029 9.5049C2.99044 12.2455 0.866824 16.044 0.213284 20.214C-0.440254 24.3839 0.41941 28.6501 2.63689 32.2414C4.85436 35.8328 8.28335 38.5123 12.304 39.7954C16.3247 41.079 20.6718 40.8811 24.5596 39.2388C28.4473 37.596 31.6192 34.6166 33.5019 30.8389C35.3847 27.0613 35.8538 22.7347 34.8249 18.6412C33.7959 14.5477 31.3366 10.9574 27.8915 8.51926H27.8698ZM19.4363 32.588C19.1869 32.8346 18.8504 32.973 18.4998 32.973C18.1491 32.973 17.8126 32.8346 17.5633 32.588L10.0824 24.76C9.83716 24.5143 9.69941 24.1814 9.69941 23.8343C9.69941 23.4871 9.83716 23.1542 10.0824 22.9085L17.6608 15.6327C17.9064 15.3874 18.2393 15.2497 18.5864 15.2497C18.9335 15.2497 19.2664 15.3874 19.512 15.6327C19.7573 15.8784 19.8951 16.2113 19.8951 16.5584C19.8951 16.9056 19.7573 17.2385 19.512 17.4842L12.8864 23.8722L19.4687 30.7041C19.7153 30.9534 19.8536 31.29 19.8536 31.6406C19.8536 31.9913 19.7153 32.3279 19.4687 32.5772" fill="#30B795"/>
<path d="M20.624 23.8946L25.2042 28.6477V19.4663L20.624 23.8946Z" fill="#30B795"/>
</g>
<defs>
<clipPath id="clip0_3781_11007">
<rect width="102" height="40.2632" fill="white" transform="translate(0 0.368652)"/>
</clipPath>
</defs>
</svg>
