<svg width="115" height="22" viewBox="0 0 115 22" fill="none" xmlns="http://www.w3.org/2000/svg">
<path d="M10.2433 1.37911C10.492 0.858023 11.2337 0.858024 11.4823 1.37911L13.7521 6.13583C13.8522 6.34555 14.0516 6.4904 14.2819 6.52076L19.5073 7.20956C20.0797 7.28501 20.3089 7.99045 19.8901 8.38795L16.0676 12.0166C15.8991 12.1765 15.823 12.4109 15.8653 12.6394L16.8249 17.8218C16.93 18.3895 16.3299 18.8255 15.8225 18.5501L11.1903 16.036C10.986 15.9251 10.7396 15.9251 10.5354 16.036L5.90315 18.5501C5.3957 18.8255 4.79562 18.3895 4.90075 17.8218L5.86038 12.6394C5.90268 12.4109 5.82653 12.1765 5.65801 12.0166L1.8355 8.38795C1.41675 7.99045 1.64596 7.28501 2.21838 7.20956L7.4437 6.52076C7.67407 6.4904 7.87344 6.34555 7.97351 6.13583L10.2433 1.37911Z" fill="#FF3D2E"></path>
<path d="M33.5636 1.37911C33.8123 0.858023 34.554 0.858024 34.8027 1.37911L37.0724 6.13583C37.1725 6.34555 37.3719 6.4904 37.6023 6.52076L42.8276 7.20956C43.4 7.28501 43.6292 7.99045 43.2105 8.38795L39.388 12.0166C39.2194 12.1765 39.1433 12.4109 39.1856 12.6394L40.1452 17.8218C40.2503 18.3895 39.6503 18.8255 39.1428 18.5501L34.5106 16.036C34.3064 15.9251 34.0599 15.9251 33.8557 16.036L29.2235 18.5501C28.716 18.8255 28.1159 18.3895 28.2211 17.8218L29.1807 12.6394C29.223 12.4109 29.1468 12.1765 28.9783 12.0166L25.1558 8.38795C24.7371 7.99045 24.9663 7.28501 25.5387 7.20956L30.764 6.52076C30.9944 6.4904 31.1938 6.34555 31.2938 6.13583L33.5636 1.37911Z" fill="#FF3D2E"></path>
<path d="M56.8839 1.37911C57.1326 0.858023 57.8743 0.858024 58.123 1.37911L60.3928 6.13583C60.4928 6.34555 60.6922 6.4904 60.9226 6.52076L66.1479 7.20956C66.7203 7.28501 66.9495 7.99045 66.5308 8.38795L62.7083 12.0166C62.5397 12.1765 62.4636 12.4109 62.5059 12.6394L63.4655 17.8218C63.5706 18.3895 62.9706 18.8255 62.4631 18.5501L57.8309 16.036C57.6267 15.9251 57.3802 15.9251 57.176 16.036L52.5438 18.5501C52.0363 18.8255 51.4362 18.3895 51.5414 17.8218L52.501 12.6394C52.5433 12.4109 52.4672 12.1765 52.2986 12.0166L48.4761 8.38795C48.0574 7.99045 48.2866 7.28501 48.859 7.20956L54.0843 6.52076C54.3147 6.4904 54.5141 6.34555 54.6141 6.13583L56.8839 1.37911Z" fill="#FF3D2E"></path>
<path d="M80.2003 1.37911C80.449 0.858023 81.1907 0.858024 81.4394 1.37911L83.7092 6.13583C83.8092 6.34555 84.0086 6.4904 84.239 6.52076L89.4643 7.20956C90.0367 7.28501 90.2659 7.99045 89.8472 8.38795L86.0247 12.0166C85.8561 12.1765 85.78 12.4109 85.8223 12.6394L86.7819 17.8218C86.8871 18.3895 86.287 18.8255 85.7795 18.5501L81.1473 16.036C80.9431 15.9251 80.6966 15.9251 80.4924 16.036L75.8602 18.5501C75.3527 18.8255 74.7527 18.3895 74.8578 17.8218L75.8174 12.6394C75.8597 12.4109 75.7836 12.1765 75.615 12.0166L71.7925 8.38795C71.3738 7.99045 71.603 7.28501 72.1754 7.20956L77.4007 6.52076C77.6311 6.4904 77.8305 6.34555 77.9305 6.13583L80.2003 1.37911Z" fill="#FF3D2E"></path>
<path d="M103.519 1.37911C103.767 0.858023 104.509 0.858024 104.758 1.37911L107.028 6.13583C107.128 6.34555 107.327 6.4904 107.557 6.52076L112.783 7.20956C113.355 7.28501 113.584 7.99045 113.166 8.38795L109.343 12.0166C109.175 12.1765 109.098 12.4109 109.141 12.6394L110.1 17.8218C110.205 18.3895 109.605 18.8255 109.098 18.5501L104.466 16.036C104.261 15.9251 104.015 15.9251 103.811 16.036L99.1785 18.5501C98.6711 18.8255 98.071 18.3895 98.1761 17.8218L99.1358 12.6394C99.1781 12.4109 99.1019 12.1765 98.9334 12.0166L95.1109 8.38795C94.6921 7.99045 94.9214 7.28501 95.4938 7.20956L100.719 6.52076C100.949 6.4904 101.149 6.34555 101.249 6.13583L103.519 1.37911Z" fill="#FF3D2E"></path>
</svg>
