<svg width="43" height="43" viewBox="0 0 43 43" fill="none" xmlns="http://www.w3.org/2000/svg">
<path d="M33.848 5.34375C34.7929 5.34375 35.6992 5.71914 36.3674 6.38734C37.0356 7.05553 37.411 7.9618 37.411 8.90678V33.848C37.411 34.7929 37.0356 35.6992 36.3674 36.3674C35.6992 37.0356 34.7929 37.411 33.848 37.411H8.90678C7.9618 37.411 7.05553 37.0356 6.38734 36.3674C5.71914 35.6992 5.34375 34.7929 5.34375 33.848V8.90678C5.34375 7.9618 5.71914 7.05553 6.38734 6.38734C7.05553 5.71914 7.9618 5.34375 8.90678 5.34375H33.848ZM32.9572 32.9572V23.5152C32.9572 21.9749 32.3453 20.4977 31.2561 19.4085C30.167 18.3193 28.6898 17.7074 27.1495 17.7074C25.6352 17.7074 23.8715 18.6338 23.0164 20.0234V18.0459H18.0459V32.9572H23.0164V24.1743C23.0164 22.8026 24.1209 21.6802 25.4927 21.6802C26.1541 21.6802 26.7885 21.943 27.2563 22.4107C27.724 22.8785 27.9868 23.5129 27.9868 24.1743V32.9572H32.9572ZM12.256 15.249C13.0498 15.249 13.8111 14.9336 14.3723 14.3723C14.9336 13.8111 15.249 13.0498 15.249 12.256C15.249 10.5992 13.9128 9.24526 12.256 9.24526C11.4575 9.24526 10.6917 9.56247 10.1271 10.1271C9.56247 10.6917 9.24526 11.4575 9.24526 12.256C9.24526 13.9128 10.5992 15.249 12.256 15.249ZM14.7323 32.9572V18.0459H9.79753V32.9572H14.7323Z" fill="#30B795"></path>
</svg>
