<svg width="43" height="43" viewBox="0 0 43 43" fill="none" xmlns="http://www.w3.org/2000/svg">
<path d="M23.2183 3.5625C25.2225 3.56784 26.2398 3.57853 27.1181 3.60347L27.4637 3.61595C27.8627 3.6302 28.2565 3.64801 28.7321 3.66939C30.6276 3.75847 31.921 4.05776 33.0558 4.49779C34.2316 4.9503 35.2222 5.56314 36.2127 6.55188C37.1189 7.44216 37.8199 8.51951 38.2668 9.70872C38.7068 10.8435 39.0061 12.1369 39.0952 14.0342C39.1166 14.5081 39.1344 14.9018 39.1486 15.3027L39.1593 15.6483C39.186 16.5248 39.1967 17.542 39.2003 19.5462L39.2021 20.8752V23.209C39.2064 24.5085 39.1927 25.8079 39.1611 27.107L39.1504 27.4526C39.1362 27.8534 39.1183 28.2471 39.097 28.721C39.0079 30.6183 38.705 31.9099 38.2668 33.0465C37.8199 34.2357 37.1189 35.3131 36.2127 36.2034C35.3224 37.1096 34.2451 37.8106 33.0558 38.2575C31.921 38.6975 30.6276 38.9968 28.7321 39.0859L27.4637 39.1393L27.1181 39.15C26.2398 39.1749 25.2225 39.1874 23.2183 39.191L21.8893 39.1928H19.5573C18.2573 39.1973 16.9573 39.1837 15.6576 39.1518L15.312 39.1411C14.8891 39.1251 14.4662 39.1067 14.0435 39.0859C12.148 38.9968 10.8546 38.6975 9.71803 38.2575C8.52946 37.8104 7.45274 37.1094 6.56297 36.2034C5.65609 35.3133 4.95446 34.2359 4.50711 33.0465C4.06707 31.9117 3.76778 30.6183 3.6787 28.721L3.62526 27.4526L3.61635 27.107C3.58351 25.8079 3.56866 24.5085 3.57181 23.209V19.5462C3.56688 18.2468 3.57995 16.9474 3.61101 15.6483L3.62348 15.3027C3.63773 14.9018 3.65555 14.5081 3.67692 14.0342C3.766 12.1369 4.06529 10.8453 4.50533 9.70872C4.95372 8.51902 5.65658 7.44163 6.56476 6.55188C7.454 5.64607 8.5301 4.94508 9.71803 4.49779C10.8546 4.05776 12.1462 3.75847 14.0435 3.66939C14.5174 3.64801 14.9129 3.6302 15.312 3.61595L15.6576 3.60526C16.9567 3.5736 18.2561 3.55994 19.5555 3.56428L23.2183 3.5625ZM21.3869 12.4701C19.0245 12.4701 16.7588 13.4085 15.0883 15.079C13.4178 16.7495 12.4794 19.0152 12.4794 21.3776C12.4794 23.7401 13.4178 26.0057 15.0883 27.6762C16.7588 29.3467 19.0245 30.2852 21.3869 30.2852C23.7494 30.2852 26.015 29.3467 27.6855 27.6762C29.356 26.0057 30.2945 23.7401 30.2945 21.3776C30.2945 19.0152 29.356 16.7495 27.6855 15.079C26.015 13.4085 23.7494 12.4701 21.3869 12.4701ZM21.3869 16.0331C22.0888 16.033 22.7838 16.1711 23.4323 16.4396C24.0807 16.7081 24.67 17.1016 25.1664 17.5978C25.6627 18.094 26.0565 18.6832 26.3252 19.3315C26.5939 19.9799 26.7323 20.6749 26.7324 21.3767C26.7325 22.0786 26.5944 22.7736 26.3259 23.4221C26.0574 24.0705 25.6638 24.6598 25.1676 25.1562C24.6714 25.6525 24.0823 26.0463 23.4339 26.315C22.7855 26.5837 22.0906 26.722 21.3887 26.7222C19.9713 26.7222 18.6119 26.1591 17.6096 25.1568C16.6073 24.1545 16.0442 22.7951 16.0442 21.3776C16.0442 19.9602 16.6073 18.6008 17.6096 17.5985C18.6119 16.5962 19.9713 16.0331 21.3887 16.0331M30.7417 9.79779C30.1511 9.79779 29.5846 10.0324 29.167 10.45C28.7494 10.8677 28.5148 11.4341 28.5148 12.0247C28.5148 12.6153 28.7494 13.1817 29.167 13.5993C29.5846 14.017 30.1511 14.2516 30.7417 14.2516C31.3323 14.2516 31.8987 14.017 32.3163 13.5993C32.7339 13.1817 32.9686 12.6153 32.9686 12.0247C32.9686 11.4341 32.7339 10.8677 32.3163 10.45C31.8987 10.0324 31.3323 9.79779 30.7417 9.79779Z" fill="#30B795"/>
</svg>
