<svg width="132" height="19" viewBox="0 0 132 19" fill="none" xmlns="http://www.w3.org/2000/svg">
<path d="M23.7148 3.30956V11.3646C23.7148 11.6262 23.9385 11.8484 24.2016 11.8484C24.2805 11.8484 24.3726 11.8223 24.4384 11.7831L31.4636 7.75554C31.7004 7.62477 31.7793 7.32402 31.6477 7.10172C31.6083 7.02326 31.5425 6.97095 31.4636 6.91865L24.4384 2.89112C24.2016 2.76035 23.9122 2.83881 23.7806 3.07419C23.728 3.15265 23.7148 3.2311 23.7148 3.30956Z" fill="white"/>
<path d="M7.99237 15.4569V7.4018C7.99237 7.14027 7.78187 6.91797 7.5056 6.91797C7.41351 6.91797 7.33458 6.94412 7.25565 6.98335L0.243656 11.0109C0.0068533 11.1416 -0.072081 11.4424 0.0726318 11.6778C0.112099 11.7562 0.177877 11.8085 0.243656 11.8478L7.2688 15.8753C7.5056 16.0061 7.79503 15.9276 7.92659 15.6922C7.96605 15.6268 7.99237 15.5353 7.99237 15.4569Z" fill="white"/>
<path d="M11.8594 10.0934V18.1484C11.8594 18.4099 12.083 18.6322 12.3461 18.6322C12.4251 18.6322 12.5172 18.6061 12.5829 18.5669L19.5949 14.5393C19.8317 14.4086 19.9107 14.1078 19.766 13.8855C19.7265 13.8071 19.6607 13.7548 19.5949 13.7155L12.5829 9.68799C12.3461 9.55723 12.0567 9.63569 11.9252 9.87106C11.8857 9.93644 11.8594 10.0149 11.8594 10.0934Z" fill="white"/>
<path d="M19.8713 8.68342V0.628358C19.8713 0.36683 19.6476 0.144531 19.3845 0.144531C19.3056 0.144531 19.2135 0.170684 19.1477 0.209913L12.1226 4.23744C11.8858 4.36821 11.8068 4.66896 11.9515 4.89126C11.991 4.96972 12.0568 5.02203 12.1226 5.06126L19.1477 9.08878C19.3845 9.21955 19.6739 9.14109 19.8055 8.91879C19.8581 8.85341 19.8713 8.77495 19.8713 8.68342Z" fill="white"/>
<path d="M63.7341 18.6457H61.6424C61.3398 18.6457 61.0898 18.3972 61.0898 18.0965V5.75233C61.0898 5.45158 61.3398 5.20312 61.6424 5.20312H63.7341C64.0367 5.20312 64.2867 5.45158 64.2867 5.75233V18.1095C64.2867 18.4103 64.0367 18.6457 63.7341 18.6457Z" fill="white"/>
<path d="M73.7705 3.63281C78.3487 3.63281 80.9404 6.86268 80.9404 11.374V11.7402C80.9404 12.0409 80.6904 12.2894 80.3878 12.2894H69.929C69.7712 12.2894 69.6528 12.4071 69.6528 12.564C69.6528 12.5771 69.6528 12.5901 69.6528 12.6163C70.0737 14.8916 71.9945 16.0423 74.0336 16.0423C75.4808 16.0554 76.8884 15.5323 77.9672 14.5908C78.1908 14.3947 78.546 14.4208 78.7434 14.6562L79.9668 16.1077C80.151 16.33 80.1379 16.6569 79.9274 16.853C78.4934 18.1476 76.6121 18.9976 74.0731 18.9976C69.3502 18.9976 66.377 15.8854 66.377 11.374C66.3638 7.0719 69.2186 3.63281 73.7705 3.63281ZM73.7047 6.45731C71.4946 6.45731 70.1658 7.60804 69.7054 9.55642C69.6659 9.70026 69.758 9.8441 69.9159 9.88333C69.929 9.88333 69.9554 9.89641 69.9685 9.89641H77.1384C77.2962 9.89641 77.4146 9.77872 77.4146 9.6218C77.4146 9.60872 77.4146 9.59565 77.4146 9.58257C77.112 7.71265 75.8886 6.45731 73.7047 6.45731Z" fill="white"/>
<path d="M109.003 3.63281C113.581 3.63281 116.173 6.86268 116.173 11.374V11.7402C116.173 12.0409 115.923 12.2894 115.62 12.2894H105.161C105.017 12.2894 104.885 12.4201 104.898 12.564C104.898 12.5771 104.898 12.5901 104.898 12.6032C105.319 14.8785 107.24 16.0292 109.279 16.0292C110.726 16.0423 112.121 15.5193 113.213 14.5778C113.436 14.3816 113.792 14.4078 113.989 14.6431L115.212 16.0946C115.397 16.3169 115.383 16.6438 115.16 16.84C113.726 18.1345 111.845 18.9845 109.306 18.9845C104.583 18.9845 101.609 15.8723 101.609 11.361C101.596 7.0719 104.464 3.63281 109.003 3.63281ZM108.937 6.45731C106.727 6.45731 105.398 7.60804 104.938 9.55642C104.898 9.70026 104.99 9.8441 105.148 9.88333C105.161 9.88333 105.188 9.89641 105.201 9.89641H112.371C112.529 9.89641 112.647 9.77872 112.647 9.6218C112.647 9.60872 112.647 9.59565 112.647 9.58257C112.344 7.71265 111.121 6.45731 108.937 6.45731Z" fill="white"/>
<path d="M85.7282 18.6463H83.5838C83.2812 18.6463 83.0312 18.3978 83.0312 18.0971V0.705459C83.0312 0.404702 83.2812 0.15625 83.5838 0.15625H85.7282C86.0308 0.15625 86.2807 0.404702 86.2807 0.705459V18.1101C86.2807 18.4109 86.0308 18.6463 85.7282 18.6463Z" fill="white"/>
<path d="M94.2533 3.63281C96.6872 3.63281 98.4895 4.4174 99.7524 5.89503C99.9498 6.1304 99.9235 6.47039 99.6867 6.66654L98.1869 7.92187C97.9633 8.10494 97.6475 8.09186 97.4502 7.89572C96.6082 7.05883 95.4768 6.54885 94.0165 6.54885C92.5431 6.54885 91.6222 7.0719 91.6222 8.0134C91.6222 9.00721 92.5957 9.24259 95.1085 9.83102C98.0553 10.5371 100.121 11.3871 100.121 14.3424C100.121 17.363 97.937 18.9976 94.1349 18.9976C91.5696 18.9976 89.07 18.0038 87.7939 16.3823C87.6229 16.16 87.6492 15.8331 87.8597 15.6369L89.3463 14.3293C89.5699 14.1332 89.9251 14.1593 90.1225 14.3816C91.0434 15.4016 92.4247 16.1208 94.3717 16.1208C95.9373 16.1208 96.8713 15.5977 96.8713 14.5124C96.8713 13.427 95.9636 13.2047 93.6087 12.6686C91.0697 12.1063 88.3859 11.2302 88.3859 8.11802C88.3859 5.33274 90.6224 3.63281 94.2533 3.63281Z" fill="white"/>
<path d="M118.803 3.98842H120.802C121.105 3.98842 121.355 4.23688 121.355 4.53763V5.40067C121.355 5.54451 121.473 5.67528 121.631 5.67528C121.71 5.67528 121.789 5.63605 121.842 5.58374C122.947 4.28918 124.459 3.64844 126.222 3.64844C129.617 3.64844 131.564 5.84527 131.564 9.66358V18.124C131.564 18.4248 131.314 18.6732 131.011 18.6732H128.867C128.564 18.6732 128.314 18.4248 128.314 18.124V10.2128C128.314 7.89827 127.196 6.64293 125.104 6.64293C122.71 6.64293 121.447 8.39517 121.447 11.7427V18.124C121.447 18.4248 121.197 18.6732 120.894 18.6732H118.803C118.5 18.6732 118.25 18.4248 118.25 18.124V4.53763C118.263 4.23688 118.5 3.98842 118.803 3.98842Z" fill="white"/>
<path d="M60.6947 1.97454C60.6552 0.915347 61.4972 0.0261528 62.5496 0C62.5891 0 62.6417 0 62.6812 0C63.8389 0 64.6677 0.836889 64.6677 1.97454C64.6677 3.11218 63.8258 3.94907 62.6812 3.94907C61.5367 3.94907 60.6947 3.12526 60.6947 1.97454Z" fill="white"/>
<path d="M40.2361 0.15625H42.4726C42.7883 0.15625 43.0909 0.287014 43.3014 0.522389L54.3654 13.0757C54.4706 13.1934 54.6416 13.2065 54.7469 13.1019C54.8126 13.0496 54.839 12.9711 54.839 12.8927V0.705459C54.839 0.404702 55.0889 0.169326 55.3783 0.15625H57.6411C57.9437 0.15625 58.1937 0.404702 58.1937 0.705459V18.1101C58.1937 18.4109 57.9437 18.6593 57.6411 18.6593H55.3652C55.0495 18.6593 54.7469 18.5286 54.5364 18.2801L43.5251 5.75295C43.4198 5.63526 43.2488 5.62218 43.1435 5.72679C43.0778 5.7791 43.0515 5.85756 43.0515 5.93602V18.1101C43.0515 18.4109 42.8015 18.6593 42.4989 18.6593H40.2361C39.9336 18.6593 39.6836 18.4109 39.6836 18.1101V0.705459C39.6836 0.404702 39.9336 0.15625 40.2361 0.15625Z" fill="white"/>
</svg>
