<svg width="13" height="14" viewBox="0 0 13 14" fill="none" xmlns="http://www.w3.org/2000/svg">
<path d="M12.0679 7.06794C12.0684 7.2445 12.0231 7.41816 11.9365 7.57204C11.85 7.72592 11.725 7.85478 11.5739 7.94609L2.20873 13.6752C2.05084 13.7719 1.86999 13.8247 1.68488 13.8281C1.49977 13.8315 1.3171 13.7855 1.15573 13.6947C0.995901 13.6053 0.862759 13.475 0.769996 13.3171C0.677233 13.1592 0.628197 12.9795 0.62793 12.7964V1.33949C0.628197 1.15638 0.677233 0.976638 0.769996 0.818758C0.862759 0.660878 0.995901 0.530555 1.15573 0.441192C1.3171 0.350418 1.49977 0.304367 1.68488 0.307796C1.86999 0.311224 2.05084 0.364006 2.20873 0.460692L11.5739 6.18979C11.725 6.2811 11.85 6.40996 11.9365 6.56384C12.0231 6.71772 12.0684 6.89138 12.0679 7.06794Z" fill="white"/>
</svg>
