<svg width="341" height="100" viewBox="0 0 341 100" fill="none" xmlns="http://www.w3.org/2000/svg">
<g clip-path="url(#clip0_3794_25877)">
<mask id="path-1-inside-1_3794_25877" fill="white">
<path d="M0 0H341V100H0V0Z"/>
</mask>
<path d="M0 2H341V-2H0V2Z" fill="#30B795" mask="url(#path-1-inside-1_3794_25877)"/>
<path d="M128.715 44.3096V52.3646C128.715 52.6262 128.938 52.8484 129.202 52.8484C129.281 52.8484 129.373 52.8223 129.438 52.7831L136.464 48.7555C136.7 48.6248 136.779 48.324 136.648 48.1017C136.608 48.0233 136.542 47.971 136.464 47.9186L129.438 43.8911C129.202 43.7604 128.912 43.8388 128.781 44.0742C128.728 44.1526 128.715 44.2311 128.715 44.3096Z" fill="white"/>
<path d="M112.992 56.4569V48.4018C112.992 48.1403 112.782 47.918 112.506 47.918C112.414 47.918 112.335 47.9441 112.256 47.9834L105.244 52.0109C105.007 52.1416 104.928 52.4424 105.073 52.6778C105.112 52.7562 105.178 52.8085 105.244 52.8478L112.269 56.8753C112.506 57.0061 112.795 56.9276 112.927 56.6922C112.966 56.6268 112.992 56.5353 112.992 56.4569Z" fill="white"/>
<path d="M116.859 51.0934V59.1484C116.859 59.4099 117.083 59.6322 117.346 59.6322C117.425 59.6322 117.517 59.6061 117.583 59.5669L124.595 55.5393C124.832 55.4086 124.911 55.1078 124.766 54.8855C124.726 54.8071 124.661 54.7548 124.595 54.7155L117.583 50.688C117.346 50.5572 117.057 50.6357 116.925 50.8711C116.886 50.9364 116.859 51.0149 116.859 51.0934Z" fill="white"/>
<path d="M124.871 49.6834V41.6284C124.871 41.3668 124.648 41.1445 124.385 41.1445C124.306 41.1445 124.213 41.1707 124.148 41.2099L117.123 45.2374C116.886 45.3682 116.807 45.669 116.952 45.8913C116.991 45.9697 117.057 46.022 117.123 46.0613L124.148 50.0888C124.385 50.2195 124.674 50.1411 124.805 49.9188C124.858 49.8534 124.871 49.775 124.871 49.6834Z" fill="white"/>
<path d="M168.734 59.6457H166.642C166.34 59.6457 166.09 59.3972 166.09 59.0965V46.7523C166.09 46.4516 166.34 46.2031 166.642 46.2031H168.734C169.037 46.2031 169.287 46.4516 169.287 46.7523V59.1095C169.287 59.4103 169.037 59.6457 168.734 59.6457Z" fill="white"/>
<path d="M178.771 44.6328C183.349 44.6328 185.94 47.8627 185.94 52.374V52.7402C185.94 53.0409 185.69 53.2894 185.388 53.2894H174.929C174.771 53.2894 174.653 53.4071 174.653 53.564C174.653 53.5771 174.653 53.5901 174.653 53.6163C175.074 55.8916 176.994 57.0423 179.034 57.0423C180.481 57.0554 181.888 56.5323 182.967 55.5908C183.191 55.3947 183.546 55.4208 183.743 55.6562L184.967 57.1077C185.151 57.33 185.138 57.6569 184.927 57.853C183.493 59.1476 181.612 59.9976 179.073 59.9976C174.35 59.9976 171.377 56.8854 171.377 52.374C171.364 48.0719 174.219 44.6328 178.771 44.6328ZM178.705 47.4573C176.495 47.4573 175.166 48.608 174.705 50.5564C174.666 50.7003 174.758 50.8441 174.916 50.8833C174.929 50.8833 174.955 50.8964 174.969 50.8964H182.138C182.296 50.8964 182.415 50.7787 182.415 50.6218C182.415 50.6087 182.415 50.5956 182.415 50.5826C182.112 48.7126 180.889 47.4573 178.705 47.4573Z" fill="white"/>
<path d="M214.003 44.6328C218.581 44.6328 221.173 47.8627 221.173 52.374V52.7402C221.173 53.0409 220.923 53.2894 220.62 53.2894H210.161C210.017 53.2894 209.885 53.4201 209.898 53.564C209.898 53.5771 209.898 53.5901 209.898 53.6032C210.319 55.8785 212.24 57.0292 214.279 57.0292C215.726 57.0423 217.121 56.5193 218.213 55.5778C218.436 55.3816 218.792 55.4078 218.989 55.6431L220.212 57.0946C220.397 57.3169 220.383 57.6438 220.16 57.84C218.726 59.1345 216.845 59.9845 214.306 59.9845C209.583 59.9845 206.609 56.8723 206.609 52.361C206.596 48.0719 209.464 44.6328 214.003 44.6328ZM213.937 47.4573C211.727 47.4573 210.398 48.608 209.938 50.5564C209.898 50.7003 209.99 50.8441 210.148 50.8833C210.161 50.8833 210.188 50.8964 210.201 50.8964H217.371C217.529 50.8964 217.647 50.7787 217.647 50.6218C217.647 50.6087 217.647 50.5956 217.647 50.5826C217.344 48.7126 216.121 47.4573 213.937 47.4573Z" fill="white"/>
<path d="M190.728 59.6463H188.584C188.281 59.6463 188.031 59.3978 188.031 59.0971V41.7055C188.031 41.4047 188.281 41.1562 188.584 41.1562H190.728C191.031 41.1562 191.281 41.4047 191.281 41.7055V59.1101C191.281 59.4109 191.031 59.6463 190.728 59.6463Z" fill="white"/>
<path d="M199.253 44.6328C201.687 44.6328 203.489 45.4174 204.752 46.895C204.95 47.1304 204.923 47.4704 204.687 47.6665L203.187 48.9219C202.963 49.1049 202.648 49.0919 202.45 48.8957C201.608 48.0588 200.477 47.5488 199.017 47.5488C197.543 47.5488 196.622 48.0719 196.622 49.0134C196.622 50.0072 197.596 50.2426 200.108 50.831C203.055 51.5371 205.121 52.3871 205.121 55.3424C205.121 58.363 202.937 59.9976 199.135 59.9976C196.57 59.9976 194.07 59.0038 192.794 57.3823C192.623 57.16 192.649 56.8331 192.86 56.6369L194.346 55.3293C194.57 55.1332 194.925 55.1593 195.122 55.3816C196.043 56.4016 197.425 57.1208 199.372 57.1208C200.937 57.1208 201.871 56.5977 201.871 55.5124C201.871 54.427 200.964 54.2047 198.609 53.6686C196.07 53.1063 193.386 52.2302 193.386 49.118C193.386 46.3327 195.622 44.6328 199.253 44.6328Z" fill="white"/>
<path d="M223.803 44.9884H225.802C226.105 44.9884 226.355 45.2369 226.355 45.5376V46.4007C226.355 46.5445 226.473 46.6753 226.631 46.6753C226.71 46.6753 226.789 46.636 226.842 46.5837C227.947 45.2892 229.459 44.6484 231.222 44.6484C234.617 44.6484 236.564 46.8453 236.564 50.6636V59.124C236.564 59.4248 236.314 59.6732 236.011 59.6732H233.867C233.564 59.6732 233.314 59.4248 233.314 59.124V51.2128C233.314 48.8983 232.196 47.6429 230.104 47.6429C227.71 47.6429 226.447 49.3952 226.447 52.7427V59.124C226.447 59.4248 226.197 59.6732 225.894 59.6732H223.803C223.5 59.6732 223.25 59.4248 223.25 59.124V45.5376C223.263 45.2369 223.5 44.9884 223.803 44.9884Z" fill="white"/>
<path d="M165.695 42.9745C165.655 41.9153 166.497 41.0262 167.55 41C167.589 41 167.642 41 167.681 41C168.839 41 169.668 41.8369 169.668 42.9745C169.668 44.1122 168.826 44.9491 167.681 44.9491C166.537 44.9491 165.695 44.1253 165.695 42.9745Z" fill="white"/>
<path d="M145.236 41.1562H147.473C147.788 41.1562 148.091 41.287 148.301 41.5224L159.365 54.0757C159.471 54.1934 159.642 54.2065 159.747 54.1019C159.813 54.0496 159.839 53.9711 159.839 53.8927V41.7055C159.839 41.4047 160.089 41.1693 160.378 41.1562H162.641C162.944 41.1562 163.194 41.4047 163.194 41.7055V59.1101C163.194 59.4109 162.944 59.6593 162.641 59.6593H160.365C160.049 59.6593 159.747 59.5286 159.536 59.2801L148.525 46.7529C148.42 46.6353 148.249 46.6222 148.144 46.7268C148.078 46.7791 148.051 46.8576 148.051 46.936V59.1101C148.051 59.4109 147.801 59.6593 147.499 59.6593H145.236C144.934 59.6593 144.684 59.4109 144.684 59.1101V41.7055C144.684 41.4047 144.934 41.1562 145.236 41.1562Z" fill="white"/>
</g>
<defs>
<clipPath id="clip0_3794_25877">
<rect width="341" height="100" fill="white"/>
</clipPath>
</defs>
</svg>
